<svg id="Capa_1" data-name="Capa 1" xmlns="http://www.w3.org/2000/svg" viewBox="0 0 1238.87 1207.29"><defs><style>.cls-1{fill:#fff;}</style></defs><path class="cls-1" d="M-1444.15,1234.28c10.44-2.26,20.86-6.38,31.33-6.48,64.17-.61,128.36-.31,192.54-.31h33.34v-35q0-335.72,0-671.43c0-36,.11-36.06,36.93-36.06,171.46,0,342.93-.43,514.38.76,14.39.1,32.14,7.46,42.5,17.48C-528.49,565.63-466,630.26-401.67,693c15.16,14.8,21.8,29.77,20.52,50.65-1.51,24.53-.35,49.22-.35,77.35,40.9,0,80.05,1.46,119-.52,25.63-1.3,44.24,6.4,57.2,28.21V1047c-14.39,21.83-34.44,29.14-60.47,28-38-1.74-76.21-.45-115.75-.45v446.55c0,51.88,0,51.88-52.38,51.88H-551.94c0,32.32-1.73,59.92.49,87.21,2.17,26.6-8.64,32.07-33.17,32-276-.76-552-.42-828-.72-10.53,0-21.05-3.58-31.57-5.49Zm1030.27-500h-31c-53.2,0-106.41-.81-159.57.39-21.58.48-29.32-7.09-29-28.48.91-54.12.38-108.26.21-162.39,0-9.59-1.12-19.18-1.65-27.75h-521.07v711.41h31.32c179.76,0,359.52.5,539.27-.54,26.85-.15,34.39,8.34,33.91,34.59-1.5,82.55-.55,165.14-.55,247.71V1541H-414.6V1074.51c-52.59,0-102.93.09-153.26,0-43.72-.1-56.52-13.18-56.6-57.61-.07-37.62,0-75.23,0-112.85,0-82.82.19-83,82.44-83h128.15Zm-169.35,523.23h-828.54v404h828.54Zm167.31-213.72c52.24,0,104.48-.26,156.71.16,15.47.13,24-4.34,23.85-21.66-.52-50.42-.3-100.85-.12-151.27,0-14.9-6.49-21.39-21.66-21.35q-158.08.4-316.17,0c-16.59-.05-22.63,7-22.45,23.26.55,48.59.87,97.19-.14,145.76-.41,19.64,7.6,25.59,26,25.35C-518.56,1043.39-467.24,1043.83-415.92,1043.82ZM-600.36,703.24h156.73C-495.58,651-548,598.2-600.36,545.57Z" transform="translate(1444.15 -484.87)"/><path class="cls-1" d="M-1444.15,661.43c9-28.41,17.35-57,27.42-85.06,2.65-7.36,10.61-12.81,16.13-19.14,5.61,6.39,14.1,11.88,16.38,19.29,16.36,53.19,29.16,106.33,28.12,163.45-2.63,144.61-.85,289.31-.9,434,0,35.24-1.46,37.47-37.61,36.21-16.6-.58-33-5.8-49.54-8.92Zm54.74,28.61c-19.7-6.19-24.79,1.23-24.75,18.25.39,150.46.13,300.91.35,451.36,0,20.38.77,20.38,24.4,15.66Z" transform="translate(1444.15 -484.87)"/><path class="cls-1" d="M-1317.73,836.74c0-82.62.93-165.25-.54-247.85-.47-26.19,8.92-33.12,33.6-32.56,53.18,1.2,53.21.13,53.21,54.63,0,154.22,2,308.49-1.34,462.64-.92,41.89-17.82,83.5-28.39,125-1.16,4.54-9,10.28-13.7,10.22-4.88-.07-12.83-5.66-14-10.25-10.3-39.64-25.41-79.27-27.55-119.52C-1320.74,998.47-1317.73,917.53-1317.73,836.74Zm54.12-246.34c-19.72-7-25.33.64-25.28,18.93.36,150.44.11,300.87.33,451.3,0,19.76.78,19.76,25,15.86Z" transform="translate(1444.15 -484.87)"/><path class="cls-1" d="M-1035.36,561.83c43.6.66,76.77,35.6,76.22,80.27-.55,44.24-35.09,77-80,75.91-45.12-1.09-76.8-34.29-76.06-79.7C-1114.51,594.34-1079.85,561.15-1035.36,561.83Zm-2.24,29.26c-26,.2-48.59,23.25-48.38,49.41s22.83,48.56,49.07,48.3c26-.25,49.31-23.61,48.92-49S-1012.23,590.9-1037.6,591.09Z" transform="translate(1444.15 -484.87)"/><path class="cls-1" d="M-1179,1460.26c-.13,44-34.54,77.78-78.75,77.43-44-.35-77.28-34.47-77.12-79.1.16-44.34,33.95-77.39,78.75-77C-1211.53,1381.9-1178.84,1415.26-1179,1460.26Zm-28.89-1.23c-.29-25.79-23.56-48.52-49.43-48.28-26,.25-49.12,23.47-48.65,49,.48,26.15,23.6,49,49.37,48.7S-1207.58,1484.71-1207.87,1459Z" transform="translate(1444.15 -484.87)"/><path class="cls-1" d="M-764.19,1522.5c23.71,0,47.53-1.28,71.07.75,7.14.61,13.5,10.3,20.22,15.84-6.47,4.82-12.84,13.66-19.42,13.81-49.23,1.19-98.51,1.29-147.73-.07-6.94-.19-13.61-10.15-20.4-15.59,6.55-4.91,12.84-13.6,19.69-14.06C-815.34,1521.49-789.73,1522.51-764.19,1522.5Z" transform="translate(1444.15 -484.87)"/><path class="cls-1" d="M-766.67,1399.79c-24.69,0-49.44,1-74-.63-6.86-.45-13.22-8.55-19.81-13.14,6.13-5.13,12.16-14.55,18.41-14.71q75.4-1.86,150.86-.08c6.19.15,12.16,9.53,18.23,14.63-6.52,4.64-12.82,12.84-19.62,13.29C-717.22,1400.77-742,1399.79-766.67,1399.79Z" transform="translate(1444.15 -484.87)"/><path class="cls-1" d="M-767.74,1476.6c-23.79,0-47.67,1.17-71.32-.68-7.47-.59-14.32-9.25-21.45-14.22,6.51-4.74,12.93-13.44,19.54-13.59q74.09-1.75,148.21,0c6.68.15,13.17,8.44,19.75,13-6.87,5.19-13.44,14.31-20.66,14.85C-718.24,1477.75-743,1476.6-767.74,1476.6Z" transform="translate(1444.15 -484.87)"/><path class="cls-1" d="M-498.2,869.28c43.44.49,78.21,35.36,78.12,78.38-.08,43.86-36.34,78.43-81.47,77.67a78.09,78.09,0,0,1-76.87-79.65C-577.54,902.84-541.8,868.8-498.2,869.28Zm-2.15,29.26C-527,899.23-548,922-547.11,949.08c.86,25.41,22.86,47.34,47.6,47.44,25.9.1,48.88-23.42,48.52-49.67C-451.36,919.63-473.62,897.85-500.35,898.54Z" transform="translate(1444.15 -484.87)"/><path class="cls-1" d="M-337.71,936.47c-15.45,0-31.18,1.67-46.24-.79-6.71-1.1-12.06-10.53-18-16.17,5.9-4.81,11.62-13.47,17.73-13.76,30.84-1.44,61.83-1.6,92.66,0,6.7.35,12.93,9.68,19.38,14.88-6.38,5.29-12.21,14.07-19.24,15.16C-306.54,938.11-322.25,936.49-337.71,936.47Z" transform="translate(1444.15 -484.87)"/><path class="cls-1" d="M-338.18,987.73c-15.56,0-31.28,1.33-46.59-.6-6.23-.79-11.58-8.6-17.33-13.22,5.54-5,10.9-14.09,16.65-14.34,32-1.42,64.05-1.41,96-.05,6,.26,11.58,8.91,17.36,13.68-5.57,4.83-10.72,13.11-16.78,13.83C-305.09,989-321.71,987.7-338.18,987.73Z" transform="translate(1444.15 -484.87)"/><path class="cls-1" d="M-1037.56,670.22c-9.77-14.19-20.33-22.83-19.5-30.18.85-7.56,13-19.42,19.88-19.19,7.23.23,18.85,12,19.68,19.75C-1016.72,647.84-1027.54,656.31-1037.56,670.22Z" transform="translate(1444.15 -484.87)"/><path class="cls-1" d="M-1226.58,1459.68c-14.16,9.58-22.9,20.12-30.29,19.24-7.76-.92-14.22-12.77-21.25-19.85,7.19-6.91,13.92-18.63,21.68-19.35C-1249,1439-1240.51,1449.76-1226.58,1459.68Z" transform="translate(1444.15 -484.87)"/><path class="cls-1" d="M-498.86,915.05c9.61,16.23,18.6,24.71,18.19,32.72-.36,7-11.23,13.54-17.45,20.28-7.08-6.79-18.9-13-19.88-20.54S-509,931.13-498.86,915.05Z" transform="translate(1444.15 -484.87)"/></svg>