<svg id="Capa_1" data-name="Capa 1" xmlns="http://www.w3.org/2000/svg" viewBox="0 0 718.6 779.71"><defs><style>.cls-1{fill:#fff;}</style></defs><path class="cls-1" d="M-485.42,804.28v472.37H-1204V804.28Zm-575.21,424.42H-629V852h-431.58Zm540.55-405.94h-72.54v5.81c0,20.15.15,40.3-.06,60.45-.05,4.4,1.18,5.69,5.6,5.65,20.65-.21,41.3-.08,62-.1,1.6,0,3.19-.24,5-.39Zm-649.54,431h71.87c.29-.62.54-.92.55-1.21q.1-33.7.22-67.41c0-2.82-1.58-3.2-3.87-3.2-21.6,0-43.21.08-64.81,0-3.14,0-4,1.12-3.93,4.1.13,9.32,0,18.64,0,28C-1169.64,1227.09-1169.62,1240.2-1169.62,1253.77Zm649.36,0v-71.55c-1.8-.1-3.09-.23-4.38-.23-20.8,0-41.59.14-62.38-.08-4.38,0-5.7,1.16-5.65,5.56.19,20.63.06,41.27.07,61.9,0,1.44.24,2.88.38,4.4Zm-577.09-359.56V823h-72v71.19Zm0,239.64a19.36,19.36,0,0,0,.35-2.4c0-21.64,0-43.27.08-64.91,0-3.68-1.6-4.41-4.86-4.39-20.8.1-41.6.2-62.4-.07-4.65-.07-5.49,1.51-5.46,5.68.18,20.31.08,40.61.09,60.92,0,1.62.15,3.24.25,5.17Zm541,.37c10.49,0,21-.11,31.47.06,3.53.06,5-.79,4.94-4.7q-.3-31.46-.06-62.92c0-3.52-1.08-4.54-4.55-4.52q-31.72.21-63.43,0c-3.35,0-4.72.81-4.69,4.45q.2,31.71,0,63.42c0,3.33,1.18,4.28,4.37,4.24C-577.64,1134.14-567,1134.23-556.33,1134.23Zm-612.89-191.88v71.53h71.87V942.35Zm648.9.37a16.91,16.91,0,0,0-2.55-.39c-21.3,0-42.61.15-63.91-.09-4.54,0-6,1.08-6,5.74.23,20.49.11,41,.14,61.47,0,1.45.21,2.89.35,4.52h71.93Z" transform="translate(1204.02 -496.94)"/><path class="cls-1" d="M-1203.19,716l684.54-219c9.67,30.31,19.29,60.43,29.1,91.14-11.28,3.68-22.26,7.3-33.28,10.84Q-566.66,613-610.52,627c-36.49,11.62-73,23.13-109.5,34.78-19.6,6.26-39.11,12.82-58.7,19.08q-54.78,17.5-109.62,34.83c-24,7.66-48,15.42-72,23.09-24.48,7.82-49,15.56-73.47,23.4-21.49,6.88-42.94,13.9-64.46,20.72a32.15,32.15,0,0,1-9.29,1.47c-23.33.14-46.66.06-70,.19-2.9,0-4.49-.57-5.44-3.59-6.3-20.11-12.79-40.16-19.19-60.23C-1202.66,719.36-1202.81,717.87-1203.19,716Zm165.5,27.22L-984.37,726l-17.08-53.32-53.12,17.3C-1048.91,707.8-1043.37,725.25-1037.69,743.17Zm506.23-158.63c-5.3-16.78-10.54-33.2-15.65-49.65-1-3.21-2.51-3.63-5.5-2.35-3.34,1.42-7,2.2-10.44,3.32-12.76,4.11-25.5,8.24-38.69,12.5,5.76,17.95,11.42,35.56,17.08,53.18Zm-130.18-17.86-53.39,17L-697.91,637l53.16-17.09C-650.43,602-656,584.49-661.64,566.68Zm-96.22,88.52c-5.76-18-11.37-35.43-17.09-53.23l-53.3,17.17,17.11,53.16Zm-113.23,35.43c-5.74-17.9-11.36-35.39-17.08-53.22l-53.22,17,17,53.26Zm-279.73,87.85,53.24-17.09c-5.79-18-11.4-35.43-17.11-53.2l-53.21,17Z" transform="translate(1204.02 -496.94)"/><path class="cls-1" d="M-704.51,1045.2c-23.83,13.66-47,26.9-70.17,40.25-14.67,8.46-29.19,17.15-43.86,25.6q-41.37,23.82-82.85,47.49c-7.92,4.54-15.74,9.25-23.68,13.74-3.78,2.14-6.26.8-6.84-3.55a41.66,41.66,0,0,1-.15-5.48q-.08-91.73-.13-183.44c0-20.3.07-40.59.13-60.89,0-1.46.15-2.91.26-4.93Z" transform="translate(1204.02 -496.94)"/></svg>