<svg id="Capa_1" data-name="Capa 1" xmlns="http://www.w3.org/2000/svg" viewBox="0 0 395.42 558.19"><defs><style>.cls-1{fill:#fff;}</style></defs><path class="cls-1" d="M-656.33,810.59l-41.82,2.82c5.94-6.94,11.44-13.46,17-19.93,7.45-8.59,14.9-17.18,22.55-25.67a12.7,12.7,0,0,1,5.48-3.53c28.38-8.54,56.85-16.89,85.22-25.43,2.94-.89,4.52-.5,6.3,1.32,16.81,17.25,33.72,34.44,50.52,51.71,4.7,4.83,10.11,8.64,18.63,9v10.5l136-42-71.9-23,7-7.31,50.48,16.09c8.43,2.69,16.9,5.3,25.25,8.13,1.79.61,3.84,1.74,4.63,3,12.82,21.32,25.46,42.7,38.12,64.07a2.58,2.58,0,0,1,.14.81c-11.5,3.89-23,7.89-34.58,11.61-3.3,1-4.26,2.41-4.25,5.12.15,22.55,0,45.11.17,67.66,0,2.62-1,3.9-4.1,4.86-48.47,14.85-96.81,30-145.44,44.48-5.14,1.54-12.43,1.07-17.73-.51-37.09-11-73.92-22.56-110.82-33.94-10.75-3.31-21.44-6.74-32.26-9.91-3.43-1-4.7-2.32-4.69-5.3.16-33.38.1-66.75.1-100.12Zm11.21-32.84c0,3.44,0,6.26,0,9.08.1,20.83.28,41.66.28,62.5q0,29.86-.37,59.75c0,3.09,1.25,4.42,5,5.56,39.1,12,78.1,24.13,117.15,36.22,6,1.87,12.13,3.6,18.69,5.55v-3.85c0-42.48,0-85,.13-127.44,0-3.11-1.17-4.46-4.87-5.58-33.29-10.1-66.49-20.39-99.71-30.63Zm152.57,45-.65.16V956.47c11.77-3.65,23.26-7.22,34.75-10.76q51-15.71,102-31.37c2.2-.67,3.39-1.34,3.37-3.53-.12-14.66,0-29.33.07-44,0-6,0-12,0-18.6L-462.42,885C-472.64,863.87-482.59,843.3-492.55,822.73Z" transform="translate(698.15 -407.74)"/><path class="cls-1" d="M-515.19,729.81V725.3q0-35.59,0-71.17c0-5.61.42-5.93,7.7-5.94,9.31,0,18.63,0,27.94,0,6.06,0,6.73.44,6.73,5.41q0,37,0,73.91v2.6c7.2-2.19,13.89-4.21,20.57-6.26,6.91-2.13,13.75-4.42,20.75-6.34,1.87-.51,4.21,0,6.33.11-.45,1.6-.3,3.57-1.45,4.76-17.48,18-35.12,35.93-52.74,53.87-3.44,3.5-6.83,7-10.38,10.47s-5,3.43-8.4,0q-31.74-32.26-63.34-64.63c-1.07-1.1-.86-3-1.25-4.46,2-.14,4.18-.82,5.84-.33,13,3.84,25.88,7.91,38.81,11.89C-517.34,729.38-516.56,729.5-515.19,729.81Z" transform="translate(698.15 -407.74)"/><path class="cls-1" d="M-521.11,417c12.54-2.86,25.06-5.77,37.62-8.53,5.85-1.29,11.62-1.33,16.52,2.79,3.44,2.91,5,7,6.63,11a194.82,194.82,0,0,1,10.39,36,80.61,80.61,0,0,1,1.15,9.3,15.89,15.89,0,0,1-10.53,16.6c-7.85,2.94-15.75,5.84-23.8,8.15-15.63,4.51-31.36,8.65-47.09,12.81-4,1.06-8.14,1.73-12.24,2.39-10.76,1.74-18-2.13-21.51-12.31-3.72-10.82-6.93-21.83-10-32.86-1.23-4.4-1.58-9.06-2.22-13.62-1.18-8.43,4.34-15,11.08-17.34,12.57-4.35,25.29-8.26,38-12.32,2-.65,4.09-1.14,6.13-1.7Zm2.45,61.66,24.43-25.86-34.22-9.64Z" transform="translate(698.15 -407.74)"/><path class="cls-1" d="M-595.24,535.87A51.12,51.12,0,0,1-529.68,568a51.08,51.08,0,0,1-31.67,64.39,51.08,51.08,0,0,1-65.24-31.34C-636,574.28-621.66,544.9-595.24,535.87Zm11.56,54.23.17.49q5,14.26,9.92,28.55c.17.48.36.59.86.41q5.29-1.86,10.6-3.67c.38-.13.41-.29.29-.64-.94-2.7-1.85-5.43-2.79-8.13q-3.43-9.83-6.88-19.64c-.16-.45-.32-.91-.5-1.45l11.88-4.13c0-.2-.07-.32-.11-.44-1.06-3-2.13-6.06-3.15-9.11-.17-.5-.41-.56-.83-.41l-3.6,1.25c-2.4.85-4.79,1.69-7.18,2.56-.44.15-.59,0-.73-.39-.7-2.1-1.43-4.19-2.14-6.28a4.71,4.71,0,0,1-.17-2.73,1.33,1.33,0,0,1,.82-1c.87-.36,1.73-.74,2.62-1.06,2.23-.81,4.48-1.59,6.72-2.39.72-.26.72-.27.48-1q-1.64-4.75-3.29-9.52c0-.15-.13-.28-.2-.44l-.4.11c-3,1-6,2.08-9.05,3.16a14.73,14.73,0,0,0-4.26,2.24,14.65,14.65,0,0,0-5,7.72,15.26,15.26,0,0,0,.05,8.78c.67,2.17,1.42,4.31,2.17,6.45.17.47,0,.62-.4.76-2.93,1-5.84,2-8.75,3-.92.32-.93.32-.6,1.28,1,2.83,2,5.65,3,8.48.08.22.19.42.3.66Z" transform="translate(698.15 -407.74)"/><path class="cls-1" d="M-373.06,599c-4.43,7-8.83,13.93-13.29,20.88-6.65,10.38-18.37,13-28.76,6.44q-20.33-12.87-40.6-25.81c-11.17-7.12-13.67-18.52-6.54-29.75q12.79-20.17,25.64-40.3c6.91-10.82,18.39-13.41,29.23-6.56q20.64,13,41.18,26.21c9.84,6.31,12.54,18,6.41,28C-364.13,585.13-368.63,592-373.06,599ZM-428,600.89c3.53,2.25,7,4.51,10.58,6.73,9,5.66,19.13,3.69,25-5.09,4.84-7.24,9.54-14.59,14-22,5.38-9,2.93-18.91-5.83-24.58q-10.83-7-21.76-13.84c-8.16-5.07-18-3.42-23.49,4.41s-10.68,16.06-15.5,24.39c-4.69,8.11-2,17.74,5.82,22.92C-435.47,596.21-431.71,598.53-428,600.89Z" transform="translate(698.15 -407.74)"/><path class="cls-1" d="M-390,588.86c-2.31,3.63-4.58,7.28-6.94,10.88-3.75,5.7-10.29,7.7-16.1,4.31q-12.18-7.12-23.85-15.11c-5.52-3.77-6.67-10.73-3.16-16.41q7-11.26,14.23-22.36c3.66-5.6,10.45-7.51,16.2-4.12q12.15,7.19,23.8,15.19c5.37,3.7,6.42,10.54,3.11,16.14-.12.2-.24.4-.37.59Q-386.51,583.42-390,588.86Zm-8.14-5.46A15.73,15.73,0,0,0-403,561.69a15.85,15.85,0,0,0-21.72,4.94,15.88,15.88,0,0,0,4.62,21.54A15.74,15.74,0,0,0-398.12,583.4Zm12.68-16.58-1.39-1c-1.6.63-3.88.84-4.6,2s-.22,3.66.72,4.72a3,3,0,0,0,5-.65C-385,570.57-385.48,568.55-385.44,566.82Z" transform="translate(698.15 -407.74)"/><path class="cls-1" d="M-417.25,583.73a10.42,10.42,0,0,1-2.86-14.47,10.41,10.41,0,0,1,14.43-3,10.6,10.6,0,0,1,3,14.75A10.6,10.6,0,0,1-417.25,583.73Z" transform="translate(698.15 -407.74)"/></svg>