<svg id="Capa_1" data-name="Capa 1" xmlns="http://www.w3.org/2000/svg" viewBox="0 0 602.13 406.23"><defs><style>.cls-1{fill:#fff;}</style></defs><path class="cls-1" d="M-1703.34,358.83c-1.12,1.59-2.3,3.16-3.36,4.79q-17.68,27.25-35.34,54.51c-2.14,3.29-4.15,8-9.1,4.94-5.13-3.19-1.4-7,.67-10.23,15.18-23.51,30.51-46.92,45.56-70.5a18.19,18.19,0,0,0,2.68-9.25c.17-46.64.12-93.29.12-139.94a21,21,0,0,0-.16-5c-.24-1-1.43-2.46-2.24-2.49-5.57-.22-11.16-.12-17.15-.12,0,11.13-.12,21.43.06,31.73a7.9,7.9,0,0,1-3.86,7.47c-7.35,4.89-14.57,10-21.86,14.95-14.15,9.65-28.25,19.35-42.51,28.81-2.23,1.48-5.63,3-7.75,2.24-1.61-.55-2.85-4.58-2.86-7.06q-.24-83.49,0-167c0-2.3,1.23-5.5,3-6.61,1.38-.88,4.8.18,6.62,1.41,21.8,14.75,43.44,29.73,65.19,44.54a8.42,8.42,0,0,1,4.09,7.88c-.18,9.16,0,18.33-.11,27.5,0,2.82.57,4.27,3.83,4.23,13-.14,26-.05,39-.1a13.66,13.66,0,0,0,3-.76c0-6.33,0-12.48,0-18.63,0-3.35,1.32-5.62,4.85-5.62s5,2.32,5,5.58c0,16.33.07,32.66,0,49,0,3.47-2,5.83-5.69,5.36-3.17-.4-4.21-2.77-4.17-5.83.08-6.26,0-12.53,0-18.69h-15.93a14.56,14.56,0,0,0-.35,1.93c-.2,34.1-.47,68.21-.55,102.32,0,14.63.21,29.28.61,43.91a15.62,15.62,0,0,0,2.42,7.8c9.78,14.89,19.81,29.63,29.76,44.41l19.53,29c1.93,2.87,2.33,5.81-.87,7.82-2.84,1.78-5.44.68-7.26-2.11-.36-.56-.75-1.1-1.12-1.65q-19.42-28.8-38.84-57.59c-.86-1.27-1.85-2.45-2.78-3.67a12.72,12.72,0,0,0-1,5.73q0,25.5,0,51c0,1.83.32,4-.52,5.38-1,1.58-3.07,3.43-4.63,3.39s-3.4-2.06-4.44-3.65c-.71-1.08-.32-2.91-.32-4.41q0-20.75,0-41.49V359.26Zm-87.1-102.09c1.58-.85,2.84-1.39,4-2.15,17-11.66,34-23.39,51.09-35,2.73-1.85,4-3.82,3.92-7.28-.17-21.31,0-42.63-.19-63.94,0-2-1-4.77-2.49-5.82-17.7-12.44-35.58-24.63-53.42-36.87a24.77,24.77,0,0,0-2.87-1.34Z" transform="translate(2241 -19.36)"/><path class="cls-1" d="M-2007.45,345V177.92a78.22,78.22,0,0,1-7.07-6.55c-.24-.25-1.47-1.61-2.82-3.31-.37,1,0,2.42,0,3.62q0,42.26,0,84.49,0,45.43,0,90.86c0,7.19,1.15,8.32,8.46,8.32h92.22l.27-.52a110.14,110.14,0,0,1,6-9.84Z" transform="translate(2241 -19.36)"/><path class="cls-1" d="M-1731,270.74c-.7.7-1.41,1.38-2.12,2.05a60.08,60.08,0,0,1-6.82,5.66q-.18,19.08-.32,38.18c0,9.31,0,18.62,0,28.37h-98.18c1.19,1.95,2.32,3.93,3.43,5.88.24.42,1.06,2.12,2.13,4.48h94.44c6.86,0,8.13-1.27,8.13-8.18,0-25,.06-49.95-.25-74.91A3.87,3.87,0,0,0-1731,270.74Z" transform="translate(2241 -19.36)"/><path class="cls-1" d="M-1730.3,95q0-33.72,0-67.43c0-7.07-1.16-8.26-8-8.18q-60.18.67-120.36,1.42c-1.49,0-3.33-.26-4.38.48l-.44.34a72.61,72.61,0,0,1,9.28,8.24c.1.1.34.36.67.74l106.37-1.22c2.12,0,4.24,0,7,0,0,21.34,0,41.83,0,62.29a71.93,71.93,0,0,1,9.17,8.09l.58-.84C-1729.87,98-1730.3,96.3-1730.3,95Z" transform="translate(2241 -19.36)"/><path class="cls-1" d="M-2070,162c0,15.19.31,158.34.36,173.53a17.9,17.9,0,0,0,2.68,9.15c15.06,23.35,30.39,46.51,45.56,69.78,2.07,3.18,5.81,7,.68,10.13-5,3.06-7-1.64-9.11-4.89q-17.68-27-35.33-53.95c-1.07-1.62-2.24-3.16-3.37-4.75l-1.22.43v14.7q0,20.53,0,41.07c0,1.48.39,3.29-.31,4.36-1.05,1.57-2.89,3.57-4.44,3.61s-3.69-1.79-4.64-3.35c-.84-1.38-.51-3.52-.51-5.32q0-25.25,0-50.47a12.51,12.51,0,0,0-1-5.68c-.93,1.21-1.92,2.38-2.77,3.64q-19.44,28.49-38.84,57c-.38.54-.77,1.08-1.13,1.63-1.82,2.76-4.42,3.85-7.26,2.09-3.2-2-2.8-4.9-.87-7.74l19.53-28.71c10-14.64,20-29.22,29.77-44a15.56,15.56,0,0,0,2.42-7.72c.39-14.48.82-151.09.79-165.58m-59.73-17.93v-.58M-2214,351c20.27-26.75,202.42-259.51,222.6-286.33a13.74,13.74,0,0,0,.88-1.73l-12.67-9.65c-3.7,4.85-7.5,9.75-11.19,14.73-1.81,2.43-4.06,3.66-6.82,2.06-3.26-1.9-3.38-4.92-1.31-7.67Q-2008,43-1993.16,23.81c2-2.56,4.58-3.46,7.36-1.34s2.51,4.75.48,7.37c-3.72,4.81-7.39,9.68-11.18,14.66a14.12,14.12,0,0,0,2,2.43c10.31,7.92,20.7,15.72,31,23.71,2.57,2,3.92,1.23,5.58-1,5.4-7.28,11-14.39,16.4-21.71a8.33,8.33,0,0,1,8-3.73c26.19,1.52,52.39,2.84,78.58,4.44,2.18.13,5.54,1.37,6.11,2.91.71,1.91-.23,5.17-1.61,7Q-1900.44,124.4-1950.7,190c-1.49,2-4.9,4.37-6.51,3.82-2.11-.72-3.93-3.94-4.82-6.45-5.67-16.09-11.07-32.28-16.53-48.45-2.82-8.33-5.52-16.71-8.43-25a7.82,7.82,0,0,1,1.41-8.23c6.32-8,12.41-16.18,19.08-24.94-4.77-3.63-9.15-7.1-13.71-10.31-.67-.46-2.49,0-3.28.61a20.83,20.83,0,0,0-3.11,3.82C-2005.37,99.48-2177.25,326.33-2196,351m332.92-292.54a23.72,23.72,0,0,0-3.08-.68c-21.54-1.18-43.07-2.42-64.61-3.35-1.82-.08-4.27,1.52-5.47,3.08-12.92,16.67-25.59,33.55-38.51,50.22-2.09,2.7-2.31,5-1.25,8.11,6.64,19.48,13.11,39,19.67,58.5a44.49,44.49,0,0,0,1.86,4.09ZM-2061,175.5a13.49,13.49,0,0,1-13.5,13.5,13.49,13.49,0,0,1-13.5-13.5,13.49,13.49,0,0,1,13.5-13.5A13.49,13.49,0,0,1-2061,175.5ZM-2241,387m33.53,2.33c-14.12.36-10.83-17.18-10.37-17.86,11.07-15.94,9.42-7.46,13-22,.23-.89,6.6,12.8,9.66,26C-2195,375.94-2190.77,388.9-2207.47,389.33Z" transform="translate(2241 -19.36)"/><path class="cls-1" d="M-1872.12,317.44c-.06,1.06-.17,2.11-.17,3.16q0,42.66,0,85.32c0,2.24.16,4.46-2,6a4.17,4.17,0,0,1-4.41.61,4.41,4.41,0,0,1-2.93-3.8c-.1-1.8-.09-3.61-.09-5.41q0-41.76,0-83.52a5.15,5.15,0,0,0-.56-2.51c-.4,1.18-.86,2.34-1.2,3.54-2.08,7.27-4.11,14.55-6.2,21.81s-4.19,14.27-6.25,21.42-4,14.32-6.11,21.47c-1.72,6-3.5,12-5.25,18-.52,1.78-1,3.57-1.52,5.37-.76,2.87-3.07,4.46-5.75,3.9a4.82,4.82,0,0,1-3.4-6c1.13-4.29,2.43-8.54,3.66-12.81q2.6-9,5.2-18c1.76-6.11,3.55-12.21,5.31-18.32,1.7-5.94,3.36-11.9,5.07-17.83s3.47-11.86,5.2-17.8q1.89-6.48,3.75-13c1.2-4.21,2.36-8.44,3.59-12.64.46-1.57.1-2.23-1.66-2.09a50,50,0,0,1-5,0,4.63,4.63,0,0,1-4.76-4.76c0-3.85-.07-7.7,0-11.55,0-1.52-.55-2-2-1.95-3.91.07-7.82.05-11.73,0a9.16,9.16,0,0,1-9-9.08c0-12.15.12-24.3-.1-36.44a9.89,9.89,0,0,1,10.5-10.42c3.18.16,6.37,0,9.56.07,1.79.05,2.58-.69,2.87-2.44.75-4.48,2.85-8,7.35-9.64a11.55,11.55,0,0,1,3.68-.66c6.25-.06,12.51.08,18.76,0,5.41-.11,9.92,3.64,11.19,9.53.7,3.22.71,3.22,4,3.22s6.26,0,9.38,0a9.46,9.46,0,0,1,9.61,9.76c0,12-.18,24.06,0,36.08a9.67,9.67,0,0,1-10.13,10.12c-3.53-.21-7.09,0-10.64-.06-1.55,0-2.13.44-2.09,2.05.09,3.6,0,7.21,0,10.82s-1.85,5.38-5.43,5.43c-1.56,0-3.13,0-4.69-.05-1.33-.05-1.76.54-1.41,1.77q1.49,5.21,3,10.39,2.6,9.07,5.19,18.16c1.72,5.94,3.48,11.86,5.19,17.8,1.32,4.55,2.58,9.12,3.89,13.68s2.73,9.32,4.08,14c1.3,4.5,2.55,9,3.85,13.51,1.75,6.05,3.53,12.09,5.28,18.14.47,1.61,1,3.22,1.37,4.86.66,2.81-.8,5.57-3.21,6.19-2.6.67-5.09-1-5.93-3.92-2.91-10.09-5.87-20.16-8.76-30.25-2.46-8.54-4.83-17.09-7.29-25.62s-5-17-7.48-25.56c-1-3.33-1.89-6.68-2.83-10Zm-4.72-87.22c-8.83-.37-15.89,7.35-15.93,15.61A15.91,15.91,0,0,0-1877,261.74a15.91,15.91,0,0,0,15.92-15.69C-1861.06,237.73-1868.1,229.93-1876.84,230.22Zm0,45.86h0c-3.24,0-6.49,0-9.73,0-1.22,0-1.75.45-1.72,1.69.06,1.92,0,3.85,0,5.77,0,1,.36,1.45,1.37,1.45q9.82,0,19.64,0c1.21,0,1.56-.58,1.54-1.67,0-1.81-.06-3.61,0-5.41.06-1.45-.59-1.87-1.95-1.84C-1870.66,276.12-1873.72,276.08-1876.79,276.08Z" transform="translate(2241 -19.36)"/><path class="cls-1" d="M-1883.86,245.87a6.85,6.85,0,0,1,7-6.84,6.88,6.88,0,0,1,6.8,6.9,7.12,7.12,0,0,1-6.94,7A7.15,7.15,0,0,1-1883.86,245.87Z" transform="translate(2241 -19.36)"/></svg>