<svg id="Capa_1" data-name="Capa 1" xmlns="http://www.w3.org/2000/svg" viewBox="0 0 1600.05 997.62"><defs><style>.cls-1{fill:#fff;}</style></defs><path class="cls-1" d="M-1622.22,846.25s17.78.06,18.12.17c.13,0,3.49-.08,5.25-.08q38.73-.09,77.47,0h3.86a1.68,1.68,0,0,0,1.68-1.67V402.14a1.67,1.67,0,0,0-1.67-1.67H-1706.7a1.68,1.68,0,0,0-1.67,1.68v5.21q0,74.24-.05,148.46a23,23,0,0,1-.55,4.42c-.26,1.32-4.79,6.85-5.92,6.12-10.68-6.92-14.8-8.08-22.95-16.22a38.53,38.53,0,0,0-4.35-3.56c-.36-.29-.38-15.66-.41-16.12-.12-1.92-.31-3.83-.31-5.74q0-70.25,0-140.5c0-11.72,6.83-18.7,18.51-18.78,7.61,0,15.22,0,23.11,0a1.68,1.68,0,0,0,1.67-1.58c.09-1.43.17-2.63.17-3.83,0-12.84-.08-25.67,0-38.5.1-11.3,7.24-18.27,18.58-18.28q53.72,0,107.43,0c12.25,0,18.71,6.55,18.74,18.85q0,18.75,0,37.5v4.1a1.68,1.68,0,0,0,1.68,1.68h42.79c38.3,0,76.59-.05,114.89.06,3,0,4-1.05,5.43-3.58,7-12.62,14.51-25,21.88-37.44q16.41-27.69,32.87-55.34c3.91-6.59,9.57-9.88,17.25-9.87q94.23,0,188.44-.07c8.36,0,14.2,3.19,18.44,10.33,17.73,29.89,35.87,59.55,53.21,89.66,3,5.3,6,6.43,11.46,6.4,36.17-.22,72.33-.12,108.5-.13,12.78,0,19.46,6.51,19.46,19.34q.07,116.22,0,232.45,0,122,0,243.94c0,11.22-4.15,17.35-13.26,19.56a23.59,23.59,0,0,1-5.45.49q-162,0-323.93,0-61.93,0-123.86,0c-82.61,0-132.47.92-215.08.87a8.31,8.31,0,0,1-2.77-2m124-34h523.67a1.67,1.67,0,0,0,1.68-1.67V401.89a1.68,1.68,0,0,0-1.68-1.68c-1.32,0-2.39,0-3.46,0q-76.48-.13-153-.25c-26.63,0-53.27.28-79.9.28q-141,0-282,0c-7.22,0-7.22,0-7.22,7.25q-.14,178.71-.26,357.42c0,25.66.17,51.32.29,77,0,.87.09,1.73.18,2.7A1.68,1.68,0,0,0-1478.74,846.09Zm381.17-480.78a1.67,1.67,0,0,0,1.46-2.49v0c-13.1-22-26.28-43.92-39.26-66-1.63-2.77-3.69-2.73-6.23-2.73-52.28,0-104.57.16-156.85-.12-7.23,0-11.79,1.11-15.73,8.21-11,19.91-23.27,39.16-35,58.7a13.39,13.39,0,0,0-1,2.15,1.67,1.67,0,0,0,1.56,2.28Zm-564.78-.29h70.78a1.67,1.67,0,0,0,1.67-1.67V340a1.68,1.68,0,0,0-1.67-1.68h-70.78A1.68,1.68,0,0,0-1664,340v23.31A1.67,1.67,0,0,0-1662.35,365Z" transform="translate(2518.42 -259.11)"/><path class="cls-1" d="M-1204,421.34c111,3.79,194.64,94,194.79,199.25.17,112.82-92.68,202.62-203.53,200.26a199.38,199.38,0,0,1-195.5-206.75C-1404.63,505.73-1315.07,419.74-1204,421.34Zm-4.85,364.23c90,1.21,162.85-73.68,164.69-160.34,2-93.65-73.74-168.88-164.42-168.69-90.42.18-162.24,70.68-164.91,159.23C-1376.43,712.71-1298.3,786.37-1208.88,785.57Z" transform="translate(2518.42 -259.11)"/><path class="cls-1" d="M-1417.16,426.05c7.66,0,15.34-.29,23,.07a17.28,17.28,0,0,1,16.5,17.32c-.17,9.25-7.29,17.05-16.66,17.26-15,.33-30,.45-45,0-11-.32-17.67-8-17.18-18.44.47-9.91,8.08-16.51,18.85-16.43,6.83,0,13.67,0,20.5,0Z" transform="translate(2518.42 -259.11)"/><path class="cls-1" d="M-1222.11,311.9c13.15,0,26.31-.23,39.46.06,13.43.3,21,12,16,24.49-2.88,7.27-9,10.15-16.27,10.19q-39.21.25-78.43-.11c-8.49-.06-14.78-5-16.91-12.25a16.65,16.65,0,0,1,7.37-19.46,20.19,20.19,0,0,1,9.82-2.74c13-.31,26-.13,39-.13Z" transform="translate(2518.42 -259.11)"/><path class="cls-1" d="M-1209,746.07c-68.47.3-124.13-55.71-124.91-123.27-.82-70.56,56.83-127.1,125.74-126.62a125.16,125.16,0,0,1,124.39,125.87C-1084.13,690.51-1140.5,746.33-1209,746.07Zm.53-215c-49.71-.46-90.35,41.08-90.35,89.91,0,48,39.12,89.79,88.64,90.11,50.91.33,91.49-40,91.54-90.41C-1118.58,571.85-1159.31,531.22-1208.46,531.11Z" transform="translate(2518.42 -259.11)"/><path class="cls-1" d="M-1710.35,818.52c50.67,1.35,90.21,41.31,90.39,92.24q.42,127.26,0,254.52a91.41,91.41,0,0,1-91.27,91.29q-272.28.35-544.57,0c-43,0-79.64-30.29-88.78-72.21-1.09-5-2.12-10.06-3.31-15.71-5.26,1.64-9.61,2.95-13.93,4.36q-60.34,19.76-120.69,39.54c-24.09,7.86-35.88-.76-35.88-26.14q0-148.47,0-296.94c0-26.75,11.59-34.94,37.37-26.46q60.26,19.83,120.53,39.62c4.17,1.37,8.43,2.44,13.55,3.9,1.6-27,12.46-48.26,31.52-65.28s42.42-23.57,69.21-23.16c-75.43-76.8-61-188.08,10.34-246,75-60.93,204.49-44.9,252.79,62.49,45.53-98.24,159.54-123.7,239.45-71.56s104.58,172.3,23.37,255.48C-1715.65,818.51-1713,818.45-1710.35,818.52Zm-542.23,43.76c-28.08,0-49.87,20.31-50,45.81-.07,11.84-.4,23.68-.41,35.52q0,108.9,0,217.81c0,31.35,20.22,51.49,51.74,51.5q267.66.07,535.34,0c32,0,52.18-20.25,52.23-52.35q.2-122.65,0-245.32c-.06-33-20-53-52.73-53q-124.86.09-249.72.41h-17.15v-.44Q-2117.93,862.23-2252.58,862.28Zm-221.61,300.15a65.83,65.83,0,0,0,7.65-1.48c36.94-12,73.82-24.21,110.84-36,6.37-2,9.16-4.62,9.11-11.84-.34-50.37,0-100.74-.47-151.1,0-3.73-3.3-9.72-6.39-10.78-38.48-13.14-77.2-25.57-115.88-38.1-1.33-.43-2.92,0-4.86,0ZM-1952,699.88c.11,64.56,53.67,118.31,118.18,118.6,65.9.3,120-53.42,120-119.07,0-65.36-53.49-119-118.73-119.13C-1898.34,580.14-1952.1,634-1952,699.88Zm-180.75,118.58c64.59-.51,117.68-54.1,117.86-119,.17-65.54-54-119.46-119.85-119.23-65.26.22-118.42,54-118.12,119.51A119.11,119.11,0,0,0-2132.74,818.46Zm113.58-.79h71.39l-35.7-51.55Z" transform="translate(2518.42 -259.11)"/><path class="cls-1" d="M-2163.36,909.36c26,0,51.92-.15,77.87.06,13.7.1,23.18,9.06,23.32,22.81q.52,50.44,0,100.87c-.11,12.34-8.61,21.33-20.87,21.41q-78,.49-155.92,0c-11.89-.08-20.57-8.71-20.69-20.32q-.54-52.16.09-104.32c.15-12,9.67-19.88,21.86-19.86q37.17.07,74.34,0Zm-52.16,101h109.09V954.46h-109.09Z" transform="translate(2518.42 -259.11)"/><path class="cls-1" d="M-1860.93,1172.31c40.13,0,80.26.17,120.38-.08,18.65-.12,29.56-16.74,21.27-31.83-4.45-8.08-11.68-11.89-20.8-11.9q-121,0-241.92.08c-13.84,0-23,9.25-23.17,21.75-.14,13.06,9.15,21.88,23.85,21.94C-1941.19,1172.41-1901.06,1172.32-1860.93,1172.31Z" transform="translate(2518.42 -259.11)"/><path class="cls-1" d="M-1860.65,1085.3c40.13,0,80.26.1,120.39,0,12.56,0,20.35-5.87,22.94-16.65,2.44-10.17-1.39-18.32-10-23.45a28.92,28.92,0,0,0-14.15-3.49q-119.24-.32-238.48-.1c-15.7,0-25.2,8.62-25.19,22s9.4,21.62,25.28,21.66C-1940.14,1085.37-1900.4,1085.3-1860.65,1085.3Z" transform="translate(2518.42 -259.11)"/><path class="cls-1" d="M-1832.87,616.68A82.43,82.43,0,0,1-1750.25,700,82.43,82.43,0,0,1-1832.91,782a82.52,82.52,0,0,1-82.69-83.25A82.6,82.6,0,0,1-1832.87,616.68Zm-.76,43.8a39.11,39.11,0,0,0-38.17,39.06,39.19,39.19,0,0,0,38.53,38.73,39.11,39.11,0,0,0,39.28-39.1A39,39,0,0,0-1833.63,660.48Z" transform="translate(2518.42 -259.11)"/><path class="cls-1" d="M-2136.25,616.68c46.48-.88,84.63,35.79,85.21,81.87.56,44.49-36.06,82.62-80.14,83.45-47.2.88-84.51-34.63-85.4-81.26C-2217.44,655.31-2181.34,617.53-2136.25,616.68Zm1.82,121.57c21.47.16,39.71-17.87,39.51-39-.19-21-17.7-38.54-38.67-38.7a38.56,38.56,0,0,0-39.12,39A38.65,38.65,0,0,0-2134.43,738.25Z" transform="translate(2518.42 -259.11)"/></svg>