<svg id="Capa_1" data-name="Capa 1" xmlns="http://www.w3.org/2000/svg" viewBox="0 0 966.05 606.18"><defs><style>.cls-1{fill:#fff;stroke:#fff;stroke-miterlimit:10;stroke-width:6px;}</style></defs><path class="cls-1" d="M-693.24,1187.36c-6,14.59-16.58,24.16-32.25,27.89a47.79,47.79,0,0,1-10.89,1q-146.25.08-292.5,0H-1035v45h5.26c12.83,0,25.67,0,38.5,0,9.37,0,15.87,6.14,15.94,14.86.07,8.88-6.6,15.16-16.18,15.16l-207.5,0c-9.81,0-16.33-6-16.33-15s6.54-15,16.32-15c14.32,0,28.64,0,43.33,0v-45h-297.93c-27.55,0-46.7-19.26-46.7-46.92q0-216.75,0-433.5a44.89,44.89,0,0,1,44.53-44.6q358.74,0,717.49-.16c22.75,0,39.63,13.29,45.42,30.14A40.71,40.71,0,0,1-690.46,734c.23,24.84.12,49.67.12,74.5,0,.8-.12,1.59-.23,3.09h-29.76v-4.63q0-33.75,0-67.5c0-12.43-5.64-18.09-18-18.09h-714c-12.37,0-18,5.65-18,18q0,176,0,352v5h6.78q300.74,0,601.49-.11c5.28,0,7.78,1.19,10.17,6.41,3.8,8.3,9.51,15.72,14.41,23.52h-632.85v5.12q0,18.75,0,37.5c0,11.58,5.91,17.55,17.49,17.55h271.5q220.5,0,441-.07c4.05,0,8.11-1.21,12.17-1.88a7.61,7.61,0,0,1,1.93-.42C-715.38,1185-704.54,1186.18-693.24,1187.36Zm-432,73.57h59.56v-44.2h-59.56Z" transform="translate(1503.33 -688.16)"/><path class="cls-1" d="M-828.66,1076.08c1.83-5.79,3.42-11.66,5.58-17.32,1.72-4.5-1.28-12.14-5.88-13.62-16.1-5.17-26.41-19.15-26.34-36.07,0-9.31-.52-18.77.87-27.9,2.19-14.41,11.42-23.62,25-28.43,5.13-1.81,8.43-9.48,6-14.24a37,37,0,0,1,6.47-43.39q7.65-7.89,15.55-15.54a36.85,36.85,0,0,1,43-6.38c4.87,2.47,12.63-.63,14.36-5.75,5.53-16.32,19-26.13,36.22-26.07,9.31,0,18.77-.51,27.89.92,14.19,2.23,23.29,11.38,28,24.83,1.94,5.49,9.38,8.59,14.73,6,15.2-7.41,31.71-4.65,43.65,7.29,4.84,4.82,9.72,9.6,14.49,14.49a37.33,37.33,0,0,1,6.58,43.83c-2.17,4.27.93,12.18,5.39,13.76,17.62,6.22,26.71,19,26.63,37.84,0,8.48.49,17.09-.73,25.42-2.13,14.61-11.09,24.15-25,29.07-5.62,2-8.72,9.39-6.11,14.67,7.39,14.91,4.83,31.41-6.8,43.34q-7.5,7.7-15.19,15.21a37.3,37.3,0,0,1-43,6.54c-5.32-2.67-12.71.36-14.64,6-5.46,16-19.14,25.74-36,25.77-6.83,0-13.67,0-20.5,0-16.53-.07-30.17-9.95-35.52-25.7-1.94-5.73-9.5-8.76-15-6a36.65,36.65,0,0,1-42.15-6.2c-5.43-5.16-10.73-10.48-16-15.85C-824,1095.33-827.71,1086.68-828.66,1076.08Zm148.92-181.95a8.77,8.77,0,0,1-.45-1.52c0-4.33,0-8.66-.12-13-.1-5.65-2.55-8.15-8.27-8.26-6-.1-12-.07-18,0-6.3.08-8.75,2.55-8.8,8.76,0,4.61,0,9.23,0,13.91a109.42,109.42,0,0,0-44.26,18.48c-3.58-3.74-6.81-7.32-10.27-10.68-3.64-3.54-7.47-3.56-11-.13q-7,6.79-13.74,13.82c-3.86,4-3.86,7.2-.07,11.32,2.59,2.81,5.52,5.34,8,8.25.83,1,1.48,3.24.93,4.07a113.58,113.58,0,0,0-16.86,42.12c-4.88,0-9.53,0-14.17,0-5.75.06-8.33,2.43-8.46,8.08q-.23,9.5,0,19c.12,5.62,2.71,8,8.51,8,4.64,0,9.28,0,14.17,0a112.3,112.3,0,0,0,18.26,44.19c-3.7,3.63-7.12,6.8-10.33,10.17-3.78,4-3.79,7.44,0,11.36q6.39,6.67,13.08,13.06c4.65,4.47,7.93,4.49,12.42,0,3.27-3.27,6.26-6.81,9.34-10.2,13.92,10,28.56,15.6,43.8,18.63.34.63.49.77.5.92.07,4.5.1,9,.19,13.49.11,5.72,2.48,8.19,8.21,8.3q9.24.17,18.49,0c5.93-.08,8.33-2.62,8.4-8.68,0-4.63,0-9.26,0-14.09a109.24,109.24,0,0,0,44.33-18.37c3.46,3.65,6.65,7.26,10.11,10.59,3.93,3.77,7.44,3.68,11.36-.14,4.29-4.18,8.48-8.47,12.67-12.75,4.92-5,4.87-8-.16-13.1-3.1-3.16-6.23-6.29-9.4-9.49,9.8-13.5,15.18-28.23,18.5-43.89,5.16,0,9.81.06,14.46,0,5.31-.09,7.92-2.62,8-8,.13-6.49.15-13,0-19.49-.14-5.08-2.77-7.51-7.91-7.6-4.8-.09-9.61,0-14.73,0a109.08,109.08,0,0,0-17.84-43.43c.26-.72.29-1.1.5-1.32,2.68-2.74,5.39-5.44,8.07-8.19,5.56-5.71,5.65-8.24.26-13.88-3.91-4.09-7.92-8.1-12-12-4.56-4.41-7.93-4.42-12.44.15-3.24,3.27-6.19,6.83-9.22,10.2A109.63,109.63,0,0,0-679.74,894.13Z" transform="translate(1503.33 -688.16)"/><path class="cls-1" d="M-1285.63,908.81l58.69,39.15q28.45,19,56.92,37.95c6.66,4.47,9,12,6.06,18.74a14.77,14.77,0,0,1-17.16,8.72,21.18,21.18,0,0,1-6.71-3.13q-66.36-44.07-132.62-88.27c-10-6.68-10-19.47,0-26.17q66.84-44.67,133.78-89.22c7.35-4.89,16.43-3.26,21.2,3.63,5,7.2,3,16.48-4.85,21.74q-55,36.75-110.11,73.4Z" transform="translate(1503.33 -688.16)"/><path class="cls-1" d="M-905.18,908.73l-47.77-31.87c-22.29-14.87-44.67-29.6-66.78-44.73a21.39,21.39,0,0,1-7.44-9.47c-2.3-6,.36-12.23,5.35-15.88a14.64,14.64,0,0,1,17.28-.44c16.4,10.79,32.73,21.7,49.06,32.59q42.16,28.1,84.32,56.23c11.27,7.5,11.45,19.68.17,27.21q-66.22,44.24-132.55,88.34c-7.79,5.19-17.17,3.51-22-3.78s-2.42-16.23,5.58-21.56q55.7-37.07,111.37-74.15C-907.59,910.58-906.69,909.85-905.18,908.73Z" transform="translate(1503.33 -688.16)"/><path class="cls-1" d="M-1050.34,798.28c-1.4,5.39-3.2,12.47-5.08,19.53q-27.43,102.95-54.92,205.86c-2.49,9.32-9.79,14.22-18.09,12.4-8.67-1.9-13.62-10.08-11.25-19.1q13.14-49.94,26.45-99.82,16.44-61.71,33-123.39c3.17-11.75,15-16.24,24-9.38C-1052.45,787.23-1050.28,791.71-1050.34,798.28Z" transform="translate(1503.33 -688.16)"/><path class="cls-1" d="M-1094.92,1171.33h-58.95c-9.82,0-16.39-6-16.47-14.87-.08-9.16,6.49-15.13,16.67-15.13q59,0,117.9,0c8.38,0,14.59,5.5,15.39,13.33A14.86,14.86,0,0,1-1032,1171a26.08,26.08,0,0,1-5.46.34Q-1066.19,1171.35-1094.92,1171.33Z" transform="translate(1503.33 -688.16)"/><path class="cls-1" d="M-1377.09,1164.36a12.61,12.61,0,0,1-12.71-12.54,12.38,12.38,0,0,1,12.56-12.6,12.56,12.56,0,0,1,12.78,12.46A12.74,12.74,0,0,1-1377.09,1164.36Z" transform="translate(1503.33 -688.16)"/><path class="cls-1" d="M-1427.41,1139.22a12.32,12.32,0,0,1,12.48,12.77,12.51,12.51,0,0,1-12.46,12.37,12.77,12.77,0,0,1-12.84-12.6A12.55,12.55,0,0,1-1427.41,1139.22Z" transform="translate(1503.33 -688.16)"/><path class="cls-1" d="M-697.19,1058.86c-32.32.82-60-25.78-60.67-58.39A60,60,0,0,1-699,938.76c32.69-.66,60.31,25.47,61.2,57.91C-636.84,1030.75-662.87,1058-697.19,1058.86Zm-30.45-60.3a29.66,29.66,0,0,0,29.41,30.14A29.67,29.67,0,0,0-668,999.35,29.6,29.6,0,0,0-697.67,969,29.63,29.63,0,0,0-727.64,998.56Z" transform="translate(1503.33 -688.16)"/></svg>