<svg id="Capa_1" data-name="Capa 1" xmlns="http://www.w3.org/2000/svg" viewBox="0 0 267.08 185.21"><defs><style>.cls-1{fill:#fff;}</style></defs><path class="cls-1" d="M-939.8,882c28.28,1.31,56.56,2.48,84.83,4,13.17.71,25.43,4,33.4,15.86,5.62,8.32,6.57,18.08,7.65,27.65a442.89,442.89,0,0,1,1,83.82,182.22,182.22,0,0,1-3,20.75c-3.18,16.44-15.33,28-32.07,29.53-18.38,1.68-36.83,3.22-55.26,3.44-35.81.41-71.62,0-107.43-.41-9.13-.1-18.28-1.12-27.37-2.13-23.84-2.64-37-15.32-38.42-39.36-1.56-25.57-1.93-51.23-2-76.86,0-10.23,1.94-20.49,3.26-30.7,2.43-18.9,18-29.82,33.66-30.83,29.21-1.91,58.5-2.76,87.76-4,4.66-.2,9.33,0,14,0Zm-30.89,134.5,67-41.26-67-41.17Z" transform="translate(1078.51 -882)"/></svg>